<svg xmlns="http://www.w3.org/2000/svg" version="1.1" xmlns:xlink="http://www.w3.org/1999/xlink" width="64" height="64"><svg id="SvgjsSvg1006" data-name="Layer 2" xmlns="http://www.w3.org/2000/svg" viewBox="0 0 64 64">
  <polygon points="29.22 45.06 29.85 41.38 15.68 43.42 13.47 56.74 48.6 56.74 50.53 45.06 29.22 45.06"></polygon>
  <g>
    <path d="M16.19,40.46h0s.06,0,.06,0c-.02,0-.04,0-.05,0Z"></path>
    <path d="M35.22,9.02l.15-.9c-5.06.05-9.97,1.03-14.21,2.3l-.17,1c4.22-1.31,9.14-2.33,14.22-2.41Z"></path>
    <path d="M34.45,13.62l.17-1.02c-5.03.09-9.93,1.01-14.17,2.12l-.18,1.1c4.22-1.14,9.14-2.09,14.18-2.21Z"></path>
    <path d="M34.84,11.32l.16-.96c-5.04.08-9.95,1.02-14.19,2.22l-.17,1.05c4.22-1.23,9.14-2.22,14.2-2.31Z"></path>
    <path d="M34.06,15.95l.18-1.09c-5,.1-9.91.94-14.14,1.97l-.19,1.16c4.21-1.05,9.13-1.92,14.15-2.04Z"></path>
    <path d="M16.77,40.39l11.61-1.63c-4.24-.18-8.35-.21-11.88-.16l-.3,1.81c.19,0,.37,0,.57,0Z"></path>
    <path d="M33.68,18.26l.2-1.2c-4.99.09-9.9.84-14.11,1.79l-.21,1.28c4.19-.96,9.13-1.75,14.12-1.87Z"></path>
    <path d="M29.15,7.26h-4.12c-1.21.3-2.38.63-3.51.99l-.15.92c2.39-.78,5.03-1.45,7.78-1.91Z"></path>
    <path d="M31.04,34.07l.27-1.62c-4.89-.11-9.75.11-13.86.41l-.27,1.65c4.08-.31,8.97-.53,13.86-.44Z"></path>
    <path d="M31.41,31.85l.26-1.56c-4.9-.06-9.77.24-13.9.63l-.26,1.59c4.1-.4,8.99-.71,13.9-.67Z"></path>
    <path d="M30.67,36.27l.28-1.68c-4.88-.16-9.74-.03-13.82.19l-.28,1.71c4.06-.22,8.94-.36,13.82-.22Z"></path>
    <path d="M31.78,29.61l.25-1.5c-4.92-.02-9.79.36-13.94.85l-.25,1.54c4.12-.49,9.02-.89,13.94-.89Z"></path>
    <path d="M32.16,27.35l.24-1.44c-4.93.01-9.81.49-13.98,1.07l-.25,1.49c4.14-.58,9.04-1.08,13.98-1.12Z"></path>
    <path d="M33.3,20.55l.21-1.25c-4.97.08-9.88.76-14.08,1.61l-.22,1.33c4.18-.86,9.11-1.58,14.09-1.69Z"></path>
    <path d="M32.91,22.83l.22-1.32c-4.96.06-9.86.68-14.05,1.44l-.23,1.39c4.17-.77,9.09-1.42,14.05-1.51Z"></path>
    <path d="M32.54,25.09l.23-1.38c-4.94.04-9.83.59-14.01,1.27l-.24,1.44c4.16-.68,9.07-1.26,14.02-1.32Z"></path>
    <path d="M16.81,36.7l-.29,1.76c4.04-.13,8.9-.19,13.78,0l.29-1.74c-4.88-.21-9.72-.16-13.78-.02Z"></path>
  </g>
</svg><style>@media (prefers-color-scheme: light) { :root { filter: none; } }
@media (prefers-color-scheme: dark) { :root { filter: invert(100%); } }
</style></svg>