<?xml version="1.0" encoding="UTF-8"?>
<svg id="Layer_1" data-name="Layer 1" xmlns="http://www.w3.org/2000/svg" xmlns:xlink="http://www.w3.org/1999/xlink" viewBox="0 0 48.15 10.5">
  <defs>
    <style>
      .cls-1, .cls-2, .cls-3, .cls-4, .cls-5, .cls-6, .cls-7, .cls-8, .cls-9, .cls-10, .cls-11, .cls-12, .cls-13, .cls-14, .cls-15, .cls-16, .cls-17, .cls-18, .cls-19, .cls-20, .cls-21, .cls-22 {
        fill: none;
      }

      .cls-2 {
        stroke-width: .12px;
      }

      .cls-2, .cls-3, .cls-4, .cls-5, .cls-6, .cls-7, .cls-8, .cls-9, .cls-10, .cls-11, .cls-12, .cls-13, .cls-14, .cls-15, .cls-16, .cls-17, .cls-18, .cls-19, .cls-20, .cls-21, .cls-22 {
        stroke: #000;
      }

      .cls-2, .cls-3, .cls-4, .cls-5, .cls-6, .cls-7, .cls-8, .cls-9, .cls-10, .cls-11, .cls-12, .cls-13, .cls-15, .cls-16, .cls-17, .cls-18, .cls-19, .cls-20, .cls-21, .cls-22 {
        stroke-miterlimit: 10;
      }

      .cls-3 {
        stroke-width: .25px;
      }

      .cls-4 {
        stroke-width: .24px;
      }

      .cls-5 {
        stroke-width: .26px;
      }

      .cls-6 {
        stroke-width: .35px;
      }

      .cls-7 {
        stroke-width: .34px;
      }

      .cls-8 {
        stroke-width: .15px;
      }

      .cls-9 {
        stroke-width: .14px;
      }

      .cls-10 {
        stroke-width: .2px;
      }

      .cls-11 {
        stroke-width: .18px;
      }

      .cls-12 {
        stroke-width: .16px;
      }

      .cls-13 {
        stroke-width: .23px;
      }

      .cls-14 {
        stroke-miterlimit: 10;
        stroke-width: .22px;
      }

      .cls-15 {
        stroke-width: .17px;
      }

      .cls-16 {
        stroke-width: .29px;
      }

      .cls-17 {
        stroke-width: .27px;
      }

      .cls-18 {
        stroke-width: .28px;
      }

      .cls-19 {
        stroke-width: .19px;
      }

      .cls-20 {
        stroke-width: .33px;
      }

      .cls-21 {
        stroke-width: .32px;
      }

      .cls-22 {
        stroke-width: .3px;
      }

      .cls-23 {
        clip-path: url(#clippath);
      }
    </style>
    <clipPath id="clippath">
      <path class="cls-1" d="M1.45.14L.48,6l2.49-.35L3.89.14H1.45ZM8.23.14l-.8,4.87,2.49-.35L10.67.14h-2.44ZM16.98.14l-.54,3.2c-.02.12-.04.25-.06.4l2.5-.36.54-3.24h-2.44ZM15.54,3.57L13.98.14h-2.49l-.73,4.4,2.48-.35c.01-.1.03-.2.04-.3v-.04s.03.07.04.1c.03.07.05.14.08.21l2.25-.32c-.04-.11-.08-.2-.11-.27ZM27.36,1.65c-.32-.54-.75-.95-1.3-1.23-.56-.28-1.19-.42-1.91-.42s-1.43.14-2.04.43c-.61.28-1.12.67-1.55,1.17-.42.49-.75,1.05-.97,1.68l2.87-.41c.15-.18.33-.34.53-.47.3-.2.65-.29,1.05-.29.3,0,.55.06.75.18.1.06.18.13.25.21l2.54-.36c-.06-.18-.13-.34-.22-.49ZM35.65.84c-.34-.28-.73-.49-1.19-.63-.45-.14-.94-.21-1.46-.21-.74,0-1.42.14-2.02.42-.61.28-1.13.66-1.56,1.16-.1.11-.19.22-.28.34l6.65-.95s-.09-.09-.14-.13Z"/>
    </clipPath>
  </defs>
  <g>
    <polygon points="2.78 6.81 2.89 6.16 .39 6.52 0 8.87 6.2 8.87 6.54 6.81 2.78 6.81"/>
    <polygon points="7.34 5.53 6.79 8.87 9.22 8.87 9.83 5.17 7.34 5.53"/>
    <path d="M10.68,5.05l-.63,3.82h2.43l.53-3.19c.03-.17.07-.42.12-.73.01-.08.03-.16.04-.25l-2.49.35Z"/>
    <path d="M16.31,4.25c-.05.31-.1.62-.14.94-.02-.06-.05-.12-.07-.19-.08-.25-.17-.47-.26-.69l-2.25.33c.04.11.08.21.12.31.13.29.23.54.32.73l1.45,3.19h2.49l.83-4.98-2.49.36Z"/>
    <path d="M27.72,2.62l-2.43.35c.07.2.1.42.1.68,0,.37-.04.74-.14,1.12-.09.38-.24.73-.44,1.05-.19.33-.44.59-.74.78-.29.2-.65.3-1.06.3-.3,0-.54-.06-.75-.18-.2-.12-.35-.29-.45-.53-.1-.23-.15-.51-.15-.84,0-.37.05-.75.14-1.13.08-.28.18-.55.32-.8l-2.71.39c-.13.5-.19,1.02-.19,1.56,0,.78.16,1.44.47,1.98.32.54.75.96,1.3,1.24.56.28,1.19.42,1.91.42s1.41-.14,2.02-.42c.6-.28,1.12-.67,1.55-1.16.44-.49.77-1.06,1-1.71.24-.65.36-1.35.36-2.08,0-.37-.03-.71-.11-1.02Z"/>
    <path d="M32.28,5.73h1.58c-.05.19-.14.37-.28.54-.17.19-.38.35-.65.46s-.58.17-.94.17c-.5,0-.87-.13-1.12-.39-.24-.26-.37-.65-.37-1.16,0-.37.05-.74.14-1.12.1-.38.24-.73.44-1.05.21-.32.46-.58.78-.78.31-.19.69-.29,1.13-.29.19,0,.36.02.5.07.14.04.26.11.35.2.09.09.16.2.21.33.04.13.07.28.07.44h2.49c.04-.49-.03-.93-.2-1.32-.06-.15-.14-.28-.23-.41l-7.39,1.05c-.15.26-.27.53-.37.82-.24.65-.36,1.34-.36,2.08s.15,1.4.45,1.94c.3.55.73.97,1.28,1.26.56.29,1.22.44,2,.44.59,0,1.14-.09,1.65-.26.51-.17.96-.41,1.36-.73s.72-.7.98-1.16c.26-.45.44-.96.53-1.53l.22-1.34h-3.96l-.29,1.74Z"/>
    <path d="M37.93,7.59c-.14-.18-.34-.27-.58-.27-.21,0-.4.07-.56.2-.16.14-.26.31-.3.51-.04.25.01.46.16.64.15.18.34.27.59.27.2,0,.39-.07.55-.2.16-.14.26-.31.3-.51.04-.25,0-.46-.16-.64Z"/>
    <path d="M43.15,5.48c-.12-.26-.3-.46-.52-.61-.23-.15-.5-.22-.81-.22-.16,0-.31.02-.46.06-.14.04-.27.1-.39.19-.12.09-.23.21-.33.36h-.01l.08-.52h-1.54l-.96,5.76h1.57l.38-2.29c.04.15.11.29.2.4.1.11.23.2.38.26s.32.09.51.09c.34,0,.63-.07.89-.22.26-.14.48-.34.65-.59.18-.24.32-.52.41-.83.09-.3.14-.61.14-.93,0-.34-.06-.65-.19-.91ZM41.72,6.88c-.04.15-.1.29-.18.42-.08.13-.18.24-.3.32-.12.08-.26.12-.41.12-.16,0-.29-.06-.39-.17-.09-.11-.14-.26-.14-.45,0-.15.02-.29.07-.44.05-.14.11-.28.2-.4.09-.13.2-.23.32-.3s.26-.11.41-.11c.16,0,.28.05.36.15.08.1.12.24.12.42,0,.14-.02.29-.06.44Z"/>
    <path d="M48.08,5.41c-.07-.24-.21-.43-.4-.56-.2-.13-.45-.2-.75-.2-.28,0-.52.05-.73.16-.21.1-.39.25-.54.43-.04.05-.07.1-.11.15l.38-2.34h-1.56l-.96,5.82h1.56l.36-2.19c.03-.16.07-.29.14-.39.06-.11.14-.19.23-.24.09-.05.2-.08.32-.08.19,0,.32.06.4.17.08.11.1.27.07.48l-.37,2.25h1.56l.43-2.6c.06-.33.05-.62-.03-.86Z"/>
  </g>
  <g class="cls-23">
    <g>
      <path class="cls-2" d="M-.84.85S2.6-1.81,5.95-.48c1.94.77,4.56-.97,9.71-1.24,2.64-.14,3.16,1.72,12.4,1.21,4.07-.22,6.85-.06,8.67.04"/>
      <path class="cls-9" d="M-.87,1.14S2.69-1.38,5.97-.08c1.94.77,4.58-1.02,9.72-1.27,2.68-.12,3.35,1.78,12.32,1.16,4.05-.28,6.9-.07,8.73.02"/>
      <path class="cls-8" d="M-.89,1.44S2.78-.94,5.99.33c1.94.77,4.59-1.08,9.74-1.29,2.72-.11,3.54,1.84,12.23,1.12,4.04-.34,6.96-.08,8.79,0"/>
      <path class="cls-12" d="M-.91,1.74S2.87-.51,6.01.74c1.94.77,4.61-1.13,9.75-1.32,2.76-.09,3.74,1.9,12.15,1.07,4.02-.4,7.02-.09,8.84-.01"/>
      <path class="cls-15" d="M-.93,2.03S2.96-.07,6.03,1.14C7.97,1.91,10.65-.05,15.8-.21c2.8-.08,3.93,1.94,12.07,1.02,4-.46,7.08-.1,8.9-.03"/>
      <path class="cls-11" d="M-.96,2.33S3.05.36,6.05,1.55c1.94.77,4.63-1.25,9.78-1.37,2.84-.07,4.13,1.99,11.98.97,3.99-.52,7.14-.11,8.96-.04"/>
      <path class="cls-19" d="M-.98,2.63S3.14.79,6.07,1.95c1.94.77,4.65-1.31,9.79-1.4,2.88-.05,4.32,2.03,11.9.92,3.97-.58,7.2-.13,9.02-.06"/>
      <path class="cls-10" d="M-1,2.92s4.23-1.69,7.09-.56c1.94.77,4.66-1.36,9.81-1.43,2.92-.04,4.52,2.06,11.82.87,3.95-.64,7.26-.14,9.08-.07"/>
      <path class="cls-14" d="M-1.02,3.22s4.34-1.56,7.13-.45c1.94.77,4.68-1.42,9.82-1.45,2.96-.02,4.72,2.09,11.73.82,3.94-.71,7.32-.15,9.14-.09"/>
      <path class="cls-13" d="M-1.04,3.51s4.46-1.42,7.17-.35c1.94.77,4.69-1.51,9.84-1.48,3,.01,4.91,2.11,11.65.78,3.92-.78,7.38-.16,9.2-.1"/>
      <path class="cls-4" d="M-1.07,3.81s4.57-1.28,7.21-.24c1.94.77,4.71-1.56,9.85-1.51,3.04.03,5.11,2.13,11.57.73,3.91-.85,7.44-.17,9.26-.12"/>
      <path class="cls-3" d="M-1.09,4.11s4.68-1.14,7.25-.13c1.94.77,4.72-1.58,9.87-1.54,3.08.03,5.3,2.15,11.48.68,3.89-.92,7.5-.18,9.32-.14"/>
      <path class="cls-5" d="M-1.11,4.4s4.79-1.01,7.3-.02c1.94.77,4.73-1.63,9.88-1.56,3.13.04,5.49,2.16,11.4.63,3.87-1,7.55-.19,9.38-.15"/>
      <path class="cls-17" d="M-1.13,4.7s4.9-.87,7.34.09c1.94.76,4.75-1.68,9.89-1.59,3.17.06,5.69,2.16,11.31.58,3.86-1.08,7.61-.2,9.44-.17"/>
      <path class="cls-18" d="M-1.16,4.99s5.02-.73,7.38.2c1.94.76,4.76-1.74,9.91-1.62,3.21.07,5.88,2.16,11.23.53,3.84-1.17,7.67-.21,9.5-.18"/>
      <path class="cls-16" d="M-1.18,5.29s5.13-.59,7.42.31c1.94.76,4.78-1.79,9.92-1.64,3.25.09,6.06,2.15,11.15.48,3.82-1.25,7.73-.22,9.55-.2"/>
      <path class="cls-22" d="M-1.2,5.59s5.24-.46,7.46.42c1.94.76,4.79-1.84,9.94-1.67,3.29.11,6.25,2.14,11.06.43,3.8-1.35,7.79-.23,9.61-.21"/>
      <path class="cls-21" d="M-1.22,5.88s5.35-.32,7.5.53c1.94.76,4.8-1.88,9.95-1.7,3.33.13,6.43,2.13,10.98.39,3.77-1.44,7.85-.24,9.67-.23"/>
      <path class="cls-20" d="M-1.24,6.18s5.46-.18,7.55.64c1.94.76,4.82-1.94,9.96-1.72,3.37.15,6.61,2.11,10.9.34,3.74-1.55,7.91-.25,9.73-.24"/>
      <path class="cls-7" d="M-1.27,6.47s5.58-.04,7.59.75c1.94.76,4.83-1.99,9.98-1.75,3.41.16,6.79,2.08,10.81.29,3.71-1.66,7.97-.26,9.79-.26"/>
      <path class="cls-6" d="M-1.29,6.77s5.69.09,7.63.86,4.85-2.04,9.99-1.78c3.45.18,6.96,2.06,10.73.24s8.03-.27,9.85-.28"/>
    </g>
  </g>
</svg>